<?xml version="1.0" standalone="no"?>
<!DOCTYPE svg PUBLIC "-//W3C//DTD SVG 20010904//EN"
 "http://www.w3.org/TR/2001/REC-SVG-20010904/DTD/svg10.dtd">
<svg version="1.0" xmlns="http://www.w3.org/2000/svg"
 width="500.000000pt" height="500.000000pt" viewBox="0 0 500.000000 500.000000"
 preserveAspectRatio="xMidYMid meet">

<g transform="translate(0.000000,500.000000) scale(0.100000,-0.100000)"
fill="#000000" stroke="none">
<path d="M0 2500 l0 -2500 2183 2 2182 3 0 300 0 300 -745 2 c-960 4 -918 2
-955 31 -17 13 -40 40 -52 60 -23 37 -23 41 -23 405 l0 367 180 0 180 0 0
-250 0 -250 585 0 585 0 0 540 0 540 -300 0 c-344 0 -313 -12 -279 109 32 114
65 172 126 222 26 22 45 27 115 32 69 6 532 11 548 7 35 -10 35 -9 35 85 0 51
-4 91 -9 88 -4 -3 -150 -5 -324 -4 -237 2 -323 6 -347 16 -38 15 -74 60 -109
135 -30 64 -63 196 -52 207 4 5 140 9 302 11 l294 3 0 534 0 535 -585 0 -585
0 0 -255 0 -255 -180 0 -180 0 0 370 c0 397 2 411 51 457 59 54 33 52 903 53
443 1 809 -1 813 -3 5 -3 8 132 8 299 l0 304 -2182 0 -2183 0 0 -2500z m4355
2198 c0 -249 -2 -285 -15 -283 -13 2 -15 41 -15 287 0 249 2 285 15 283 13 -2
15 -41 15 -287z m-2028 -330 c25 -16 49 -44 62 -71 21 -43 21 -54 19 -408 l-3
-364 -176 -3 -176 -2 -7 46 c-3 26 -6 141 -6 255 l0 209 -580 0 -580 0 0 -540
0 -540 301 0 302 0 -6 -42 c-16 -119 -78 -246 -140 -292 -27 -20 -43 -21 -340
-24 -172 -2 -327 0 -345 3 -37 7 -96 55 -118 96 -12 24 -14 146 -14 807 l0
779 23 33 c28 42 66 70 108 80 19 5 394 7 835 7 l800 -2 41 -27z m377 -1347
c117 -46 176 -128 176 -245 0 -102 -48 -182 -133 -221 l-50 -24 43 -11 c132
-35 210 -149 197 -287 -14 -149 -115 -245 -287 -272 -36 -6 -172 -11 -302 -11
l-238 0 0 551 0 551 268 -4 c250 -4 271 -6 326 -27z m1650 -520 c-2 -91 -1
-86 -17 -73 -8 7 -12 34 -11 79 1 37 2 68 3 69 0 0 7 1 14 1 9 0 12 -20 11
-76z m-3027 -110 c62 -38 134 -180 150 -298 l6 -43 -302 0 -301 0 0 -540 0
-540 580 0 580 0 0 213 c0 116 3 229 6 250 l7 37 178 0 179 0 0 -360 c0 -338
-1 -363 -20 -399 -21 -43 -70 -88 -103 -96 -12 -3 -392 -4 -844 -3 -816 3
-822 3 -850 24 -15 11 -38 36 -50 54 l-23 33 0 787 0 787 23 34 c12 18 40 44
62 56 39 22 47 23 365 23 303 0 327 -1 357 -19z m3028 -2086 c0 -255 -2 -292
-15 -290 -13 2 -15 41 -16 286 0 156 1 287 2 290 2 3 9 6 16 6 10 0 13 -60 13
-292z"/>
<path d="M4339 4978 c-4 -9 -3 -556 1 -551 5 5 8 553 3 553 -2 0 -4 -1 -4 -2z"/>
<path d="M2290 2738 l0 -161 141 6 c116 5 148 10 186 28 65 31 85 68 80 148
-3 57 -7 67 -35 92 -44 40 -89 49 -239 49 l-133 0 0 -162z"/>
<path d="M2290 2276 l0 -176 148 0 c197 0 261 20 298 92 23 44 20 131 -5 172
-38 60 -100 79 -283 84 l-158 4 0 -176z"/>
<path d="M4335 2505 c0 -35 3 -66 6 -69 2 -3 4 24 4 59 0 35 -3 66 -6 69 -2 3
-4 -24 -4 -59z"/>
<path d="M4335 305 c0 -156 2 -282 5 -280 7 4 7 552 0 558 -3 3 -5 -122 -5
-278z"/>
</g>
</svg>
