<?xml version="1.0" standalone="no"?>
<!DOCTYPE svg PUBLIC "-//W3C//DTD SVG 20010904//EN"
 "http://www.w3.org/TR/2001/REC-SVG-20010904/DTD/svg10.dtd">
<svg version="1.0" xmlns="http://www.w3.org/2000/svg"
 width="500.000000pt" height="500.000000pt" viewBox="0 0 500.000000 500.000000"
 preserveAspectRatio="xMidYMid meet">

<g transform="translate(0.000000,500.000000) scale(0.100000,-0.100000)"
fill="#000000" stroke="none">
<path d="M0 2500 l0 -2500 2183 2 2182 3 0 270 0 270 -1874 3 c-1471 2 -1880
5 -1900 15 l-26 12 -2 1915 c-2 1196 1 1921 7 1930 8 13 233 16 1882 21 1030
4 1882 8 1893 10 20 3 20 11 20 276 l0 273 -2182 0 -2183 0 0 -2500z m4355
2225 c0 -222 -2 -258 -15 -260 -13 -2 -15 32 -15 260 0 228 2 262 15 260 13
-2 15 -38 15 -260z m0 -4450 c0 -228 -2 -262 -15 -260 -13 2 -15 38 -16 256 0
140 1 257 2 260 2 3 9 6 16 6 10 0 13 -54 13 -262z"/>
<path d="M4339 4978 c-4 -9 -3 -500 1 -503 3 -2 5 111 5 251 0 223 -1 262 -6
252z"/>
<path d="M4335 275 c0 -139 2 -252 5 -250 7 4 7 492 0 498 -3 3 -5 -109 -5
-248z"/>
<path d="M680 3765 l0 -555 359 0 c233 0 362 -4 366 -10 4 -6 3 -35 0 -65 l-7
-55 -359 0 -359 0 0 -580 0 -580 359 0 358 0 7 -46 c12 -94 53 -84 -359 -84
l-365 0 0 -555 0 -555 555 0 555 0 0 350 0 350 65 0 65 0 0 -350 0 -350 580 0
580 0 0 350 0 350 65 0 65 0 0 -350 0 -350 555 0 555 1 0 554 0 554 -357 1
c-197 0 -360 4 -363 8 -4 4 -4 33 -2 65 l4 57 351 1 c194 1 355 1 360 0 4 0 7
260 7 579 l0 580 -359 0 -359 0 -4 58 c-2 31 -3 60 -1 65 3 4 166 7 364 7
l359 0 0 555 0 555 -555 0 -555 0 0 -350 0 -350 -65 0 -65 0 0 350 0 350 -580
0 -580 0 0 -350 0 -350 -65 0 -65 0 0 350 0 350 -555 0 -555 0 0 -555z m1975
-676 c153 -28 252 -128 263 -265 9 -116 -48 -218 -151 -268 -31 -15 -44 -25
-32 -26 32 0 138 -55 167 -86 55 -60 73 -111 73 -209 0 -70 -5 -100 -22 -136
-26 -58 -86 -119 -144 -147 -96 -46 -145 -52 -451 -52 l-288 0 0 600 0 600
263 0 c147 0 289 -5 322 -11z"/>
<path d="M2270 2765 l0 -177 153 4 c139 3 156 6 202 29 68 35 95 76 95 149 0
70 -27 116 -85 145 -34 17 -64 20 -202 23 l-163 3 0 -176z"/>
<path d="M2270 2250 l0 -190 155 0 c190 0 244 11 296 57 46 41 63 88 57 155
-6 55 -28 92 -78 125 -52 36 -95 43 -267 43 l-163 0 0 -190z"/>
</g>
</svg>
